<svg width="512" height="512" viewBox="0 0 512 512" xmlns="http://www.w3.org/2000/svg">
<defs><clipPath id="ballclip"><circle cx="0" cy="0" r="170"/></clipPath></defs>
<rect width="512" height="512" rx="110" fill="#0A2540"/>
<g transform="translate(256,262)">
  <circle r="170" fill="#FFF4DC"/>
  <g clip-path="url(#ballclip)">
    <polygon points="0,72 45,105 27,157 -27,157 -45,105" fill="#0A2540"/>
    <polygon points="-115,55 -72,79 -81,133 -136,135 -156,86" fill="#0A2540"/>
    <polygon points="115,55 156,86 136,135 81,133 72,79" fill="#0A2540"/>
    <path d="M0,72 L0,49 M-45,105 L-75,92 M45,105 L75,92 M-27,157 L-35,173 M27,157 L35,173" stroke="#0A2540" stroke-width="7" fill="none" stroke-linecap="round"/>
    <rect x="-190" y="12" width="380" height="37" fill="#8A5A2B"/>
    <rect x="-190" y="-8" width="380" height="20" fill="#E2504C"/>
    <path d="M-190,-34 L190,-34 L190,-11 q-19,19 -38,0 q-19,19 -38,0 q-19,19 -38,0 q-19,19 -38,0 q-19,19 -38,0 q-19,19 -38,0 q-19,19 -38,0 q-19,19 -38,0 q-19,19 -38,0 q-19,19 -38,0 Z" fill="#7CC243"/>
    <rect x="-190" y="-190" width="380" height="156" fill="#F2A93B"/>
    <ellipse cx="-64" cy="-122" rx="48" ry="18" fill="#F7BD63"/>
    <ellipse cx="-90" cy="-78" rx="13" ry="7" fill="#FBE8C0" transform="rotate(-20 -90 -78)"/>
    <ellipse cx="-20" cy="-138" rx="13" ry="7" fill="#FBE8C0" transform="rotate(12 -20 -138)"/>
    <ellipse cx="75" cy="-107" rx="13" ry="7" fill="#FBE8C0" transform="rotate(-10 75 -107)"/>
    <ellipse cx="121" cy="-63" rx="13" ry="7" fill="#FBE8C0" transform="rotate(25 121 -63)"/>
    <ellipse cx="-135" cy="-55" rx="13" ry="7" fill="#FBE8C0" transform="rotate(18 -135 -55)"/>
    <ellipse cx="-43" cy="-69" rx="22" ry="26" fill="#FFFFFF" stroke="#0A2540" stroke-width="4"/>
    <ellipse cx="43" cy="-69" rx="22" ry="26" fill="#FFFFFF" stroke="#0A2540" stroke-width="4"/>
    <circle cx="-37" cy="-63" r="11" fill="#0A2540"/>
    <circle cx="49" cy="-63" r="11" fill="#0A2540"/>
    <circle cx="-92" cy="-46" r="11" fill="#F08080" opacity="0.65"/>
    <circle cx="92" cy="-46" r="11" fill="#F08080" opacity="0.65"/>
  </g>
  <circle r="170" fill="none" stroke="#FFF8EC" stroke-width="10"/>
</g>
</svg>
